# xmcd CD database file
#
# Track frame offsets:
#	150
#	15570
#	30205
#	46857
#	63406
#	79142
#	92467
#	115353
#	126955
#	141294
#	153917
#
# Disc length: 2242 seconds
#
# Revision: 0
# Processed by: cddbd v1.5.2PL0 Copyright (c) Steve Scherf et al.
# Submitted via: CDex 1.79
#
DISCID=8108c00b
DTITLE=Big Joe Stolle - Stecker rein und los
DYEAR=2017
DGENRE=Blues
TTITLE0=Mein Bruder Blues
TTITLE1=Verkaufe meine Seele
TTITLE2=Lass dich nicht fallen
TTITLE3=Gesehen im Kaffeehaus
TTITLE4=Endlich Party
TTITLE5=Whisky
TTITLE6=Boogieman
TTITLE7=Verheiratet sein
TTITLE8=Das Paradies
TTITLE9=Bye Bye Blues
TTITLE10=Das Leben ist wie ein Boogie
EXTD=YEAR: 2017
EXTT0=
EXTT1=
EXTT2=
EXTT3=
EXTT4=
EXTT5=
EXTT6=
EXTT7=
EXTT8=
EXTT9=
EXTT10=
PLAYORDER=
